<svg width="24" height="24" viewBox="0 0 24 24" fill="none" xmlns="http://www.w3.org/2000/svg">
<path d="M11.9979 8.66689C10.1636 8.66689 8.66274 10.1668 8.66274 12C8.66274 13.8373 10.1636 15.3372 11.9979 15.3372C13.8323 15.3372 15.3331 13.8373 15.3331 12C15.3331 10.1668 13.8323 8.66689 11.9979 8.66689ZM21.9993 12C21.9993 10.6209 22.0118 9.25018 21.9326 7.87111C21.8575 6.27123 21.4907 4.85051 20.3192 3.67976C19.1477 2.50485 17.7303 2.14238 16.1294 2.06738C14.7453 1.98822 13.3778 2.00072 12.0021 2.00072C10.618 2.00072 9.25056 1.98822 7.8748 2.06738C6.27392 2.14238 4.8523 2.50902 3.68082 3.67976C2.50934 4.85467 2.14663 6.27123 2.06742 7.87111C1.98821 9.25434 2.00072 10.6209 2.00072 12C2.00072 13.379 1.98821 14.7498 2.06742 16.1288C2.14663 17.7287 2.50934 19.1494 3.68082 20.3202C4.8523 21.4951 6.27392 21.8576 7.8748 21.9367C9.25473 22.0117 10.6222 21.9992 12.0021 21.9992C13.382 21.9992 14.7494 22.0117 16.1294 21.9367C17.7303 21.8576 19.1477 21.4909 20.3192 20.3202C21.4948 19.1494 21.8575 17.7287 21.9326 16.1288C22.0118 14.7498 21.9993 13.3832 21.9993 12ZM11.9979 17.1329C9.15885 17.1329 6.86591 14.8414 6.86591 12C6.86591 9.16268 9.15885 6.87119 11.9979 6.87119C14.837 6.87119 17.1299 9.16268 17.1299 12C17.1299 14.8414 14.837 17.1329 11.9979 17.1329ZM17.3384 7.85861C16.6755 7.85861 16.1419 7.32115 16.1419 6.6587C16.1419 5.99625 16.6755 5.46296 17.3384 5.46296C18.0012 5.46296 18.5349 5.99625 18.5349 6.6587C18.5349 6.81703 18.5057 6.97118 18.4473 7.117C18.3848 7.26283 18.2972 7.39615 18.1847 7.50864C18.0763 7.61697 17.9429 7.70863 17.797 7.76695C17.651 7.82945 17.4968 7.85861 17.3384 7.85861Z" fill="#313131"/>
</svg>
