<svg width="24" height="24" viewBox="0 0 24 24" fill="none" xmlns="http://www.w3.org/2000/svg">
<path d="M11.9997 8.86322C10.2809 8.86322 8.8747 10.2695 8.8747 11.9882C8.8747 13.7109 10.2809 15.1171 11.9997 15.1171C13.7184 15.1171 15.1247 13.7109 15.1247 11.9882C15.1247 10.2695 13.7184 8.86322 11.9997 8.86322ZM21.3708 11.9882C21.3708 10.6953 21.3825 9.4101 21.3083 8.11713C21.238 6.61713 20.8942 5.2851 19.7966 4.18744C18.6989 3.08588 17.3708 2.74604 15.8708 2.67572C14.5739 2.6015 13.2927 2.61322 12.0036 2.61322C10.7067 2.61322 9.42548 2.6015 8.13642 2.67572C6.63642 2.74604 5.30439 3.08979 4.20673 4.18744C3.10907 5.289 2.76923 6.61713 2.69501 8.11713C2.62079 9.414 2.63251 10.6953 2.63251 11.9882C2.63251 13.2812 2.62079 14.5663 2.69501 15.8593C2.76923 17.3593 3.10907 18.6913 4.20673 19.789C5.30439 20.8906 6.63642 21.2304 8.13642 21.3046C9.42939 21.3749 10.7106 21.3632 12.0036 21.3632C13.2966 21.3632 14.5778 21.3749 15.8708 21.3046C17.3708 21.2304 18.6989 20.8867 19.7966 19.789C20.8981 18.6913 21.238 17.3593 21.3083 15.8593C21.3825 14.5663 21.3708 13.2851 21.3708 11.9882ZM11.9997 16.8007C9.33954 16.8007 7.1911 14.6523 7.1911 11.9882C7.1911 9.32807 9.33954 7.17963 11.9997 7.17963C14.6599 7.17963 16.8083 9.32807 16.8083 11.9882C16.8083 14.6523 14.6599 16.8007 11.9997 16.8007ZM17.0036 8.10541C16.3825 8.10541 15.8825 7.6015 15.8825 6.98041C15.8825 6.35932 16.3825 5.85932 17.0036 5.85932C17.6247 5.85932 18.1247 6.35932 18.1247 6.98041C18.1247 7.12885 18.0974 7.27338 18.0427 7.4101C17.9841 7.54682 17.902 7.67182 17.7966 7.77729C17.695 7.87885 17.57 7.96479 17.4333 8.01947C17.2966 8.07807 17.152 8.10541 17.0036 8.10541Z" fill="#006472"/>
</svg>
