<svg width="24" height="24" viewBox="0 0 24 24" fill="none" xmlns="http://www.w3.org/2000/svg">
<path fill-rule="evenodd" clip-rule="evenodd" d="M2 4.12891C2 3.70312 2.17578 3.29687 2.48828 2.99609C2.80469 2.69531 3.22656 2.52734 3.67188 2.52734H20.3281C20.5469 2.52734 20.7656 2.57031 20.9688 2.64844C21.1719 2.73047 21.3555 2.84766 21.5117 2.99609C21.6641 3.14453 21.7891 3.32031 21.8711 3.51562C21.957 3.71094 22 3.91797 22 4.12891V20.0742C22 20.2812 21.957 20.4922 21.875 20.6836C21.7891 20.8789 21.668 21.0547 21.5117 21.2031C21.3555 21.3516 21.1719 21.4727 20.9688 21.5508C20.7656 21.6328 20.5469 21.6719 20.3281 21.6719H3.67188C3.45312 21.6719 3.23438 21.6328 3.03125 21.5508C2.82812 21.4727 2.64453 21.3516 2.48828 21.2031C2.33203 21.0547 2.21094 20.8789 2.125 20.6875C2.04297 20.4922 2 20.2852 2 20.0742V4.12891ZM9.91797 9.82812H12.625V11.1289C13.0156 10.3828 14.0156 9.70703 15.5195 9.70703C18.3984 9.70703 19.082 11.1992 19.082 13.9336V19H16.168V14.5586C16.168 13 15.7773 12.1211 14.7812 12.1211C13.4062 12.1211 12.832 13.0664 12.832 14.5586V19H9.91797V9.82812ZM4.91797 18.8828H7.83203V9.70703H4.91797V18.8828ZM8.25 6.71484C8.25391 6.95312 8.21094 7.19141 8.12109 7.41406C8.02734 7.63672 7.89063 7.83984 7.71484 8.01172C7.53906 8.18359 7.33203 8.31641 7.10156 8.41016C6.87109 8.50391 6.625 8.55078 6.375 8.55078C6.125 8.55078 5.87891 8.50391 5.64844 8.41016C5.41797 8.31641 5.21094 8.18359 5.03516 8.01172C4.85938 7.83984 4.72266 7.63672 4.62891 7.41406C4.53906 7.19141 4.49609 6.95312 4.5 6.71484C4.51172 6.24609 4.71484 5.80078 5.0625 5.47266C5.41406 5.14453 5.88281 4.96094 6.375 4.96094C6.86719 4.96094 7.33594 5.14453 7.6875 5.47266C8.03516 5.80078 8.23828 6.24609 8.25 6.71484Z" fill="#ffffff"/>
</svg>
