<svg width="24" height="24" viewBox="0 0 24 24" fill="none" xmlns="http://www.w3.org/2000/svg">
<path fill-rule="evenodd" clip-rule="evenodd" d="M2 3.60156C2 3.17578 2.17578 2.76953 2.48828 2.46875C2.80469 2.16797 3.22656 2 3.67188 2H20.3281C20.5469 2 20.7656 2.04297 20.9688 2.12109C21.1719 2.20312 21.3555 2.32031 21.5117 2.46875C21.6641 2.61719 21.7891 2.79297 21.8711 2.98828C21.957 3.18359 22 3.39062 22 3.60156V19.5469C22 19.7539 21.957 19.9648 21.875 20.1562C21.7891 20.3516 21.668 20.5273 21.5117 20.6758C21.3555 20.8242 21.1719 20.9453 20.9688 21.0234C20.7656 21.1055 20.5469 21.1445 20.3281 21.1445H3.67188C3.45312 21.1445 3.23438 21.1055 3.03125 21.0234C2.82812 20.9453 2.64453 20.8242 2.48828 20.6758C2.33203 20.5273 2.21094 20.3516 2.125 20.1602C2.04297 19.9648 2 19.7578 2 19.5469V3.60156ZM9.91797 9.30078H12.625V10.6016C13.0156 9.85547 14.0156 9.17969 15.5195 9.17969C18.3984 9.17969 19.082 10.6719 19.082 13.4062V18.4727H16.168V14.0312C16.168 12.4727 15.7773 11.5938 14.7812 11.5938C13.4062 11.5938 12.832 12.5391 12.832 14.0312V18.4727H9.91797V9.30078ZM4.91797 18.3555H7.83203V9.17969H4.91797V18.3555ZM8.25 6.1875C8.25391 6.42578 8.21094 6.66406 8.12109 6.88672C8.02734 7.10938 7.89062 7.3125 7.71484 7.48438C7.53906 7.65625 7.33203 7.78906 7.10156 7.88281C6.87109 7.97656 6.625 8.02344 6.375 8.02344C6.125 8.02344 5.87891 7.97656 5.64844 7.88281C5.41797 7.78906 5.21094 7.65625 5.03516 7.48438C4.85938 7.3125 4.72266 7.10938 4.62891 6.88672C4.53906 6.66406 4.49609 6.42578 4.5 6.1875C4.51172 5.71875 4.71484 5.27344 5.0625 4.94531C5.41406 4.61719 5.88281 4.43359 6.375 4.43359C6.86719 4.43359 7.33594 4.61719 7.6875 4.94531C8.03516 5.27344 8.23828 5.71875 8.25 6.1875Z" fill="#313131"/>
</svg>
