<svg width="24" height="24" viewBox="0 0 24 24" fill="none" xmlns="http://www.w3.org/2000/svg">
<path d="M12 2C6.47581 2 2 6.47623 2 12C2 17.5238 6.47581 22 12 22C17.5242 22 22 17.5238 22 12C22 6.47623 17.5242 2 12 2ZM16.9113 8.84931L15.2702 16.585C15.1492 17.133 14.8226 17.2659 14.3669 17.0081L11.8669 15.1668L10.6613 16.3272C10.5282 16.4601 10.4153 16.5729 10.1573 16.5729L10.3347 14.0266L14.9677 9.84448C15.1694 9.6672 14.9234 9.56648 14.6573 9.74376L8.93145 13.3457L6.46371 12.5761C5.92742 12.4069 5.91532 12.0403 6.57661 11.7824L16.2177 8.06366C16.6653 7.9025 17.0565 8.17244 16.9113 8.84931Z" fill="#313131"/>
</svg>
