<svg width="24" height="24" viewBox="0 0 24 24" fill="none" xmlns="http://www.w3.org/2000/svg">
<path d="M2 2V22H22V2H2ZM18 9C18 9.125 18 9.25 18 9.375C18 13.5 14.875 18.125 9.25 18.125C7.5 18.125 5.875 17.625 4.5 16.75C4.75 16.75 5 16.75 5.25 16.75C6.75 16.75 8 16.25 9.125 15.375C7.75 15.375 6.625 14.5 6.25 13.25C6.5 13.25 6.625 13.25 6.875 13.25C7.125 13.25 7.375 13.25 7.625 13.125C6.25 12.875 5.125 11.625 5.125 10.125C5.5 10.375 6 10.5 6.5 10.5C5.625 10 5.125 9 5.125 8C5.125 7.375 5.25 6.875 5.5 6.5C7 8.375 9.375 9.5 11.875 9.625C11.875 9.375 11.75 9.125 11.75 8.875C11.75 7.125 13.125 5.75 14.875 5.75C15.75 5.75 16.5 6.125 17.125 6.75C17.875 6.625 18.5 6.375 19.125 6C18.875 6.75 18.375 7.375 17.75 7.75C18.375 7.625 19 7.5 19.5 7.25C19.125 8 18.625 8.5 18 9Z" fill="#ffffff"/>
</svg>
