<svg width="24" height="24" viewBox="0 0 24 24" fill="none" xmlns="http://www.w3.org/2000/svg">
<path d="M20.9362 2H3.06383C2.47617 2 2 2.47638 2 3.06383V20.9362C2 21.5236 2.47617 22 3.06383 22H20.9362C21.5238 22 22 21.5236 22 20.9362V3.06383C22 2.47638 21.5238 2 20.9362 2ZM17.9296 13.2645C18.4747 13.7964 19.0511 14.2972 19.5406 14.8851C19.7572 15.1447 19.9615 15.4128 20.117 15.7147C20.3385 16.1453 20.1385 16.6183 19.7526 16.6436L17.3577 16.643C16.7394 16.6938 16.247 16.4449 15.8317 16.0221C15.5009 15.6849 15.1932 15.3249 14.8743 14.9766C14.7443 14.8334 14.6064 14.6987 14.4434 14.5923C14.117 14.3804 13.8334 14.4451 13.646 14.7857C13.4553 15.1326 13.4113 15.5172 13.3938 15.9038C13.3672 16.4687 13.197 16.6162 12.6304 16.6423C11.4198 16.6994 10.2706 16.5155 9.20319 15.9055C8.26085 15.3672 7.53213 14.6068 6.89723 13.7468C5.65979 12.0696 4.71213 10.2285 3.86106 8.33468C3.66936 7.90809 3.80957 7.67979 4.27957 7.67106C5.0617 7.65553 5.84362 7.65766 6.62468 7.67021C6.94298 7.67511 7.1534 7.85723 7.27532 8.15723C7.69766 9.1966 8.21596 10.1855 8.86489 11.1026C9.03787 11.3466 9.21447 11.5902 9.46553 11.7628C9.74298 11.9534 9.95447 11.8906 10.0853 11.5811C10.1689 11.3836 10.2051 11.1738 10.223 10.9628C10.2851 10.2402 10.2926 9.51766 10.1853 8.79787C10.1183 8.34766 9.86468 8.05681 9.41574 7.9717C9.18723 7.9283 9.22064 7.84362 9.3317 7.71319C9.52447 7.48723 9.70617 7.34766 10.067 7.34766L12.7736 7.34723C13.2004 7.43064 13.2953 7.62213 13.3534 8.0517L13.356 11.0587C13.3515 11.2251 13.4391 11.7179 13.7379 11.8268C13.9768 11.9057 14.1353 11.714 14.2783 11.5621C14.9268 10.8738 15.3889 10.0609 15.8032 9.21979C15.9855 8.84894 16.1436 8.46468 16.2968 8.08021C16.4102 7.79574 16.5877 7.65574 16.9085 7.66085L19.514 7.66362C19.5906 7.66362 19.6691 7.66447 19.7451 7.67702C20.1838 7.75255 20.304 7.94149 20.1685 8.37C19.9549 9.04298 19.5389 9.60383 19.1321 10.166C18.6974 10.767 18.2334 11.3483 17.8019 11.9523C17.4066 12.5064 17.4385 12.7847 17.9296 13.2645Z" fill="#006472"/>
</svg>
