<svg width="24" height="24" viewBox="0 0 24 24" fill="none" xmlns="http://www.w3.org/2000/svg">
<g clip-path="url(#clip0_328_284)">
<path d="M21.5817 7.53524C21.4685 7.1368 21.2497 6.77352 20.945 6.48836C20.6325 6.19539 20.2497 5.98445 19.8317 5.87508C18.2653 5.46883 11.9958 5.46883 11.9958 5.46883C9.38253 5.43758 6.76925 5.57039 4.17159 5.85555C3.74972 5.96883 3.36691 6.18758 3.05441 6.48055C2.74581 6.77742 2.52316 7.1368 2.40597 7.53524C2.12472 9.02742 1.99191 10.543 1.99972 12.0626C1.988 13.5782 2.12472 15.0938 2.40597 16.5899C2.51925 16.9845 2.74191 17.3438 3.0505 17.6368C3.363 17.9259 3.74581 18.1368 4.17159 18.2501C5.75753 18.6563 11.9958 18.6563 11.9958 18.6563C14.613 18.6837 17.2302 18.5548 19.8317 18.2696C20.2497 18.1602 20.6325 17.9493 20.945 17.6563C21.2497 17.3712 21.4685 17.0079 21.5817 16.6095C21.8708 15.1173 22.0114 13.6016 21.9997 12.0821C22.0232 10.5548 21.8825 9.03133 21.5817 7.53524ZM9.99972 14.8829V9.24227L15.2185 12.0626L9.99972 14.8829Z" fill="#ffffff"/>
</g>
<defs>
<clipPath id="clip0_328_284">
<rect width="20" height="20" fill="white" transform="translate(2 2)"/>
</clipPath>
</defs>
</svg>
