<svg width="24" height="24" viewBox="0 0 24 24" fill="none" xmlns="http://www.w3.org/2000/svg">
<path d="M21.5827 7.07088C21.4694 6.67244 21.2507 6.30916 20.946 6.02401C20.6335 5.73104 20.2507 5.5201 19.8327 5.41072C18.2663 5.00447 11.9968 5.00447 11.9968 5.00447C9.38351 4.97322 6.77023 5.10604 4.17257 5.39119C3.75069 5.50447 3.36788 5.72322 3.05538 6.01619C2.74679 6.31307 2.52413 6.67244 2.40694 7.07088C2.12569 8.56307 1.99288 10.0787 2.00069 11.5982C1.98898 13.1138 2.12569 14.6295 2.40694 16.1256C2.52023 16.5201 2.74288 16.8795 3.05148 17.1724C3.36398 17.4615 3.74679 17.6724 4.17257 17.7857C5.75851 18.192 11.9968 18.192 11.9968 18.192C14.614 18.2193 17.2312 18.0904 19.8327 17.8053C20.2507 17.6959 20.6335 17.4849 20.946 17.192C21.2507 16.9068 21.4694 16.5435 21.5827 16.1451C21.8718 14.6529 22.0124 13.1373 22.0007 11.6178C22.0241 10.0904 21.8835 8.56697 21.5827 7.07088ZM10.0007 14.4185V8.77791L15.2194 11.5982L10.0007 14.4185Z" fill="#313131"/>
</svg>
