<svg width="30" height="31" fill="none" xmlns="http://www.w3.org/2000/svg"><g filter="url(#a)"><path d="M21.598 9.695a4.4 4.4 0 0 1 3.3 7.312v5.06a.825.825 0 0 1-1.199.736l-.099-.06-2.002-1.4-2.002 1.4a.824.824 0 0 1-1.289-.561l-.007-.116v-5.061a4.4 4.4 0 0 1 3.298-7.31Zm1.65 8.48a4.388 4.388 0 0 1-1.65.32 4.388 4.388 0 0 1-1.65-.32v2.309l1.178-.822a.825.825 0 0 1 .835-.066l.11.066 1.177.822v-2.309ZM22.973 2a3.024 3.024 0 0 1 3.02 2.84l.005.185v5.77A5.529 5.529 0 0 0 24.35 9.33l-.001-4.306a1.375 1.375 0 0 0-1.234-1.369l-.14-.006H7.023a1.375 1.375 0 0 0-1.368 1.234l-.006.14v10.45c0 .711.541 1.297 1.234 1.367l.14.008h9.814l.135.224.148.215.078.104-.001 1.106H7.025a3.025 3.025 0 0 1-3.02-2.84L4 15.473V5.024a3.025 3.025 0 0 1 2.84-3.018L7.025 2h15.948Zm-1.375 9.345a2.75 2.75 0 1 0 0 5.5 2.75 2.75 0 0 0 0-5.5Zm-7.424 1.1a.824.824 0 0 1 .112 1.642l-.112.007h-4.95a.825.825 0 0 1-.112-1.642l.112-.007h4.95Zm6.6-6.05a.825.825 0 0 1 .111 1.642l-.112.008H9.224a.825.825 0 0 1-.112-1.642l.112-.008h11.55Z" fill="#313131"/></g><defs><filter id="a" x="-1" y="0" width="32" height="32" filterUnits="userSpaceOnUse" color-interpolation-filters="sRGB"><feFlood flood-opacity="0" result="BackgroundImageFix"/><feColorMatrix in="SourceAlpha" values="0 0 0 0 0 0 0 0 0 0 0 0 0 0 0 0 0 0 127 0" result="hardAlpha"/><feOffset dy="4"/><feGaussianBlur stdDeviation="2"/><feComposite in2="hardAlpha" operator="out"/><feColorMatrix values="0 0 0 0 0 0 0 0 0 0 0 0 0 0 0 0 0 0 0.25 0"/><feBlend in2="BackgroundImageFix" result="effect1_dropShadow_1637_5747"/><feBlend in="SourceGraphic" in2="effect1_dropShadow_1637_5747" result="shape"/></filter></defs></svg>