<svg width="24" height="24" fill="none" xmlns="http://www.w3.org/2000/svg"><path d="M12.285 1c-.528 0-1.056.18-1.506.503l-1.405.978-1.61.211h-.026l-.027.025a2.868 2.868 0 0 0-2.169 2.17l-.025.025v.027l-.211 1.64-.979 1.269-.027.025V7.9c-.59.946-.617 2.166.027 3.067l1.003 1.404.266 1.454-2.725 4.151L2 19.271h4.045l.978 2.274.61 1.455.87-1.322 2.672-4.02c.716.297 1.528.322 2.22 0l2.672 4.02.871 1.32.61-1.456.976-2.272h4.045l-.871-1.296-2.645-4.018.212-1.587.978-1.4.027-.026v-.025c.59-.948.617-2.14-.027-3.042l-.978-1.402-.318-1.587h.026c0-.021-.023-.034-.026-.054-.152-1.105-1.03-2.005-2.14-2.14h-.027l-1.587-.212-1.402-.978A2.604 2.604 0 0 0 12.285 1Zm0 1.717c.194 0 .387.06.528.161l1.506 1.083.187.132.211.027 1.851.264h.026c.379.043.646.309.688.688v.053l.344 1.878.025.183.133.16 1.083 1.505c.203.284.228.757-.025 1.165l-1.058 1.48-.132.186-.027.212-.264 1.85v.025a.818.818 0 0 1-.132.37l-.053.027v.027a.747.747 0 0 1-.502.264h-.052l-1.93.345-.211.025-.16.133-1.507 1.083c-.281.203-.781.228-1.19-.026L10.25 14.96l-.159-.132-.237-.027-1.852-.264h-.027a.738.738 0 0 1-.581-.37.829.829 0 0 1-.107-.318v-.052l-.343-1.93-.027-.21-.132-.162L5.7 9.99c-.203-.281-.229-.781.025-1.19l1.058-1.375.132-.159.025-.237.24-1.772c.001-.012.021-.013.025-.026a1.183 1.183 0 0 1 .846-.846c.013-.003.013-.023.025-.025L9.85 4.12l.211-.027.186-.132 1.506-1.083a.927.927 0 0 1 .53-.16h.002Zm5.843 12.878 1.296 1.983h-2.038l-.211.528-.58 1.348-1.798-2.75.396-.29 1.665-.292v.025c.02 0 .033-.023.053-.025a2.515 2.515 0 0 0 1.215-.53l.002.002Zm-11.686.025c.361.323.818.548 1.321.609h.026l1.614.212.37.29-1.797 2.723-.582-1.348-.211-.53H5.144L6.44 15.62h.002Z" fill="#313131"/></svg>