<svg width="24" height="24" fill="none" xmlns="http://www.w3.org/2000/svg"><g clip-path="url(#a)"><path d="M12 21.924c-5.472 0-9.922-4.451-9.922-9.922 0-5.472 4.45-9.924 9.923-9.924 5.47 0 9.922 4.452 9.922 9.924 0 5.471-4.45 9.922-9.922 9.922Z" fill="#fff"/><path d="M11.998 1.016c-6.055 0-10.982 4.927-10.982 10.982 0 6.056 4.927 10.982 10.982 10.982 6.056 0 10.982-4.926 10.982-10.982.001-6.055-4.926-10.982-10.982-10.982Zm0 20.907c-5.472 0-9.922-4.452-9.922-9.923 0-5.472 4.45-9.924 9.922-9.924 5.471 0 9.923 4.452 9.923 9.924 0 5.47-4.45 9.922-9.923 9.922Z" fill="#40C0E7"/><path d="M13.684 11.996a1.67 1.67 0 0 0-.89-1.473V2.945H11.21v7.577c-.528.283-.89.833-.89 1.474 0 .93.75 1.681 1.68 1.681.325 0 .626-.096.884-.256l3.674 2.123.793-1.37-3.675-2.121c0-.019.007-.038.007-.057Zm-1.932.585a.635.635 0 0 1-.375-.674.626.626 0 0 1 .232-.402.63.63 0 0 1 1.028.493.632.632 0 0 1-.385.583c-.003.001-.007.001-.01.003a.62.62 0 0 1-.48 0l-.01-.003ZM20.58 12.636a.634.634 0 1 0 0-1.269.634.634 0 0 0 0 1.269ZM19.752 8.26a.633.633 0 1 0-.635-1.097.633.633 0 0 0 .635 1.096ZM16.841 4.881a.633.633 0 1 0-1.095-.632.633.633 0 0 0 1.095.632ZM8.024 5.115a.633.633 0 1 0-.632-1.095.633.633 0 0 0 .632 1.095ZM5.115 8.022a.633.633 0 1 0-1.096-.632.633.633 0 0 0 1.096.632ZM3.414 11.367a.633.633 0 1 0 0 1.266.633.633 0 0 0 0-1.266Zm.833 4.376a.634.634 0 1 0 .638 1.096.634.634 0 0 0-.638-1.096Zm3.775 3.14a.632.632 0 0 0-.927.713.634.634 0 0 0 .996.338.632.632 0 0 0-.07-1.05Zm3.973 1.066a.633.633 0 1 0 .002 1.267.633.633 0 0 0-.002-1.267Zm3.976-1.064a.63.63 0 0 0-.068 1.05.632.632 0 1 0 .068-1.05Zm3.774-3.142a.632.632 0 0 0-.864.232.633.633 0 1 0 .864-.232Z" fill="#2F2F2F"/></g><defs><clipPath id="a"><path fill="#fff" transform="translate(1 1)" d="M0 0h22v22H0z"/></clipPath></defs></svg>