<svg width="24" height="24" fill="none" xmlns="http://www.w3.org/2000/svg"><path d="M3.2 3h17.6A2.2 2.2 0 0 1 23 5.2v13.2a2.2 2.2 0 0 1-2.2 2.2H3.2A2.2 2.2 0 0 1 1 18.4V5.2A2.2 2.2 0 0 1 3.2 3Zm0 2.2v13.2h7.7V5.2H3.2Zm17.6 13.2V5.2h-1.364c.264.594.209 1.177.209 1.243-.077.737-.594 1.507-.781 1.782l-2.563 2.805 3.652-.022.011 1.342-5.72-.033-.044-1.1s3.355-3.553 3.52-3.872c.154-.308.781-2.145-.77-2.145-1.353.055-1.199 1.43-1.199 1.43l-1.694.011s.011-.726.418-1.441H13.1v13.2h2.838l-.011-.946 1.067-.011s1.001-.176 1.012-1.155c.044-1.1-.891-1.1-1.056-1.1-.143 0-1.177.055-1.177.957h-1.672s.044-2.266 2.849-2.266c2.86 0 2.706 2.222 2.706 2.222s.044 1.375-1.221 1.892l.572.407H20.8ZM8.612 16.2h-1.65V9.82l-1.98.616V9.083l3.454-1.232h.176V16.2Z" fill="#313131"/></svg>