<svg width="24" height="24" fill="none" xmlns="http://www.w3.org/2000/svg"><path d="M12 22.75c5.937 0 10.75-4.813 10.75-10.75S17.937 1.25 12 1.25 1.25 6.063 1.25 12 6.063 22.75 12 22.75ZM12.004 22.508v-1.681m-5.248.274.84-1.455M2.914 17.26l1.456-.84m-2.862-4.408h1.68m-.274-5.248 1.456.84m2.386-4.682.84 1.456m4.408-2.862v1.68m5.248-.274-.84 1.456m4.681 2.386-1.455.84m2.862 4.408h-1.681m.274 5.248-1.455-.84M17.252 21.1l-.84-1.455" stroke="#000" stroke-width=".5" stroke-linecap="round" stroke-linejoin="round"/><path d="M11.999 13.248a1.249 1.249 0 1 0 0-2.498 1.249 1.249 0 0 0 0 2.498ZM11.997 13.245v3.531m6.955-4.779h-5.64m-2.338-1.023L6.602 6.602" stroke="#313131" stroke-width="1" stroke-linecap="round" stroke-linejoin="round"/></svg>