<svg width="24" height="24" fill="none" xmlns="http://www.w3.org/2000/svg"><path fill-rule="evenodd" clip-rule="evenodd" d="M14.34 19.705c.413.19.837.355 1.27.494 2.08.656 3.45.33 4.185-.405.735-.733 1.06-2.104.404-4.183-.139-.434-.304-.86-.495-1.274a27.956 27.956 0 0 1-2.507 2.86c-.895.9-1.85 1.737-2.859 2.507h.001ZM12 18.37a24.2 24.2 0 0 0 3.465-2.906A24.195 24.195 0 0 0 18.368 12a24.181 24.181 0 0 0-2.903-3.465A24.196 24.196 0 0 0 12 5.632a24.193 24.193 0 0 0-3.464 2.903A24.19 24.19 0 0 0 5.63 12a24.199 24.199 0 0 0 2.903 3.464c1.18 1.18 2.347 2.144 3.467 2.906Zm-7.705-4.031c.723.953 1.56 1.91 2.509 2.859.894.899 1.849 1.736 2.857 2.506-.413.19-.838.356-1.272.494-2.079.657-3.45.331-4.184-.402-.735-.735-1.06-2.105-.403-4.185.128-.408.294-.833.494-1.274v.002ZM2.745 12a15.071 15.071 0 0 0-1.278 2.873c-.79 2.502-.65 4.997 1.007 6.655 1.657 1.657 4.152 1.798 6.655 1.006.999-.324 1.961-.753 2.87-1.278.984.558 1.948.986 2.873 1.278 2.504.79 4.998.65 6.655-1.006 1.657-1.658 1.798-4.153 1.007-6.655A15.02 15.02 0 0 0 21.255 12c.559-.983.986-1.947 1.279-2.872.791-2.503.65-4.998-1.007-6.655C19.87.816 17.375.675 14.872 1.466c-1 .325-1.962.753-2.872 1.279a15.016 15.016 0 0 0-2.873-1.279C6.625.675 4.13.816 2.473 2.473.815 4.13.676 6.625 1.466 9.128c.324 1 .753 1.962 1.278 2.872h.002Zm1.553-2.338c.722-.953 1.559-1.91 2.507-2.859.894-.9 1.85-1.737 2.858-2.506-.414-.19-.84-.356-1.273-.495-2.079-.656-3.45-.33-4.184.403-.735.735-1.06 2.104-.403 4.184.128.408.294.833.495 1.274v-.001Zm10.041-5.365c.414-.19.839-.356 1.273-.495 2.08-.656 3.45-.33 4.184.403.735.735 1.06 2.104.404 4.184-.13.408-.294.833-.494 1.274a27.886 27.886 0 0 0-2.508-2.86c-.895-.9-1.85-1.737-2.859-2.506ZM13.837 12a1.837 1.837 0 1 1-3.674.002 1.837 1.837 0 0 1 3.674-.003V12Z" fill="#313131"/></svg>