<svg width="24" height="24" fill="none" xmlns="http://www.w3.org/2000/svg"><path fill-rule="evenodd" clip-rule="evenodd" d="M1 1v17.111h13.68V16.89H2.223V2.222h16.5v1.296h1.222V1H1Zm18.944 6.111a1.222 1.222 0 1 1-2.444 0 1.222 1.222 0 0 1 2.444 0Zm1.223 0a2.444 2.444 0 1 1-4.889 0 2.444 2.444 0 0 1 4.889 0Z" fill="#313131"/><path fill-rule="evenodd" clip-rule="evenodd" d="M15.722 10.671c.34-.325.793-.507 1.264-.507h2.495c.895 0 1.728.304 2.37.91.617.584.938 1.331 1.07 2.04.206 1.113-.008 2.33-.534 3.408v4.948a1.528 1.528 0 0 1-3.035.25l-.326-1.957-.326 1.958a1.528 1.528 0 0 1-3.035-.251v-5.75c-.279.162-.595.246-.917.246H11.63a1.834 1.834 0 0 1 0-3.666h2.383l1.709-1.63v.001Zm1.165 7.117v3.682a.306.306 0 0 0 .607.05l.637-3.823a.611.611 0 0 1 .603-.511h.584a.611.611 0 0 1 .602.51l.638 3.824a.306.306 0 0 0 .607-.05v-5.093c0-.098.023-.195.068-.281.472-.911.644-1.909.486-2.76-.096-.517-.32-1.007-.708-1.373-.395-.373-.92-.577-1.53-.577h-2.494a.613.613 0 0 0-.422.169l-1.885 1.798a.61.61 0 0 1-.421.17H11.63a.611.611 0 0 0 0 1.221h3.118c.157 0 .308-.06.422-.169l.684-.653a.61.61 0 0 1 1.033.443v3.423Z" fill="#313131"/></svg>