<svg width="24" height="24" fill="none" xmlns="http://www.w3.org/2000/svg"><path d="M17.238 11.476a5.762 5.762 0 1 1 0 11.524 5.762 5.762 0 0 1 0-11.524Zm0 2.095-.094.008a.523.523 0 0 0-.421.42l-.009.095v2.62h-2.622l-.094.009a.523.523 0 0 0-.421.42l-.009.095.009.094a.523.523 0 0 0 .42.421l.095.009h2.622v2.623l.01.094a.524.524 0 0 0 .42.422l.095.008.094-.008a.525.525 0 0 0 .422-.422l.008-.094v-2.624h2.622l.094-.008a.523.523 0 0 0 .422-.42l.008-.095-.008-.094a.523.523 0 0 0-.422-.421l-.094-.009h-2.624v-2.619l-.008-.094a.524.524 0 0 0-.422-.422l-.094-.009.001.001Zm-5.74 0a6.771 6.771 0 0 0-.741 1.572H8.595a.262.262 0 0 0-.262.262v1.047c0 1.024.641 1.619 2.168 1.79.084.562.236 1.1.446 1.61-2.674-.144-4.185-1.28-4.185-3.4v-1.047c0-1.012.82-1.834 1.833-1.834H11.5Zm-4.08-5.238a4.198 4.198 0 0 0-.1 1.572H2.832a.262.262 0 0 0-.262.262v1.047c0 1.232.929 1.844 3.212 1.844.424.004.847-.023 1.266-.082-.6.38-1.037.968-1.229 1.651l-.037.002C2.736 14.629 1 13.487 1 11.213v-1.047A1.833 1.833 0 0 1 2.682 8.34l.151-.007h4.585Zm4.058-2.095a3.143 3.143 0 1 1 0 6.286 3.143 3.143 0 0 1 0-6.286Zm8.643 2.095c1.012 0 1.833.822 1.833 1.834l-.002 1.008c.023.356-.007.714-.09 1.062-.445-.41-.942-.76-1.478-1.04l-.001-1.03a.262.262 0 0 0-.262-.262h-4.485a4.222 4.222 0 0 0-.1-1.572h4.585Zm-8.643-.523a1.571 1.571 0 1 0 0 3.142 1.571 1.571 0 0 0 0-3.142ZM5.714 1a3.143 3.143 0 1 1 0 6.286 3.143 3.143 0 0 1 0-6.286Zm11.524 0a3.143 3.143 0 1 1 0 6.286 3.143 3.143 0 0 1 0-6.286ZM5.714 2.571a1.571 1.571 0 1 0 0 3.143 1.571 1.571 0 0 0 0-3.143Zm11.524 0a1.571 1.571 0 1 0 0 3.143 1.571 1.571 0 0 0 0-3.143Z" fill="#313131"/></svg>