<svg width="24" height="24" fill="none" xmlns="http://www.w3.org/2000/svg"><path d="M12.001 1c-.281 0-.476.095-.689.196a8.056 8.056 0 0 0-.638.352c-.211.127-.419.256-.591.353-.173.096-.33.16-.345.163a2.926 2.926 0 0 1-.391.007c-.205-.008-.455-.027-.71-.044a9.05 9.05 0 0 0-.757-.03c-.243.004-.463.007-.707.13-.243.122-.359.286-.484.466-.126.18-.238.389-.349.59-.11.202-.216.397-.31.556a2.186 2.186 0 0 1-.205.293c-.01.01-.153.096-.335.178-.182.082-.411.174-.642.27a8.324 8.324 0 0 0-.672.308c-.208.11-.396.207-.537.42-.14.212-.143.403-.148.614-.005.211.014.437.034.66.02.223.04.44.05.619.01.178-.004.329-.008.341-.004.013-.08.15-.191.3-.111.151-.255.332-.4.516a6.857 6.857 0 0 0-.405.56c-.116.184-.224.351-.224.597 0 .245.108.411.224.596.117.185.26.376.405.56.145.184.289.36.4.511.11.15.187.288.19.3.005.013.02.163.01.342-.01.179-.032.4-.051.622-.02.223-.04.45-.034.66.005.211.007.403.148.615.141.213.33.31.537.42.122.064.254.126.389.185l-3.507 5.3a.34.34 0 0 0 .009.392c.086.12.241.187.402.176l3.742-.266 1.608 2.957a.44.44 0 0 0 .373.215.453.453 0 0 0 .393-.187l3.51-5.294c.072.04.145.08.217.115.212.101.408.196.69.196.281 0 .472-.095.684-.196a5.04 5.04 0 0 0 .25-.132l3.476 5.247c.08.122.232.195.394.19a.44.44 0 0 0 .375-.219l1.607-2.953 3.744.262a.456.456 0 0 0 .401-.175c.086-.12.09-.27.009-.393l-3.478-5.247c.124-.056.245-.113.358-.172.207-.11.396-.207.536-.42.141-.212.144-.404.149-.615a6.055 6.055 0 0 0-.03-.66c-.02-.222-.045-.443-.055-.622-.01-.179.008-.33.013-.342.003-.012.077-.15.188-.3.11-.15.254-.327.4-.511.144-.184.29-.375.407-.56.117-.185.222-.35.222-.596s-.105-.413-.222-.598a6.864 6.864 0 0 0-.408-.559c-.145-.184-.289-.365-.4-.516a2.069 2.069 0 0 1-.187-.3 1.802 1.802 0 0 1-.013-.341c.01-.179.035-.396.055-.619.02-.223.035-.449.03-.66-.005-.211-.008-.402-.149-.615-.14-.212-.329-.31-.536-.42a8.321 8.321 0 0 0-.671-.307c-.232-.096-.46-.188-.643-.27a2.602 2.602 0 0 1-.336-.178c-.01-.01-.11-.134-.204-.293-.094-.16-.2-.354-.31-.556-.111-.201-.224-.41-.35-.59-.125-.18-.24-.344-.484-.466-.244-.123-.464-.126-.706-.13a9.056 9.056 0 0 0-.757.03c-.256.017-.506.036-.71.044a2.86 2.86 0 0 1-.392-.007 2.511 2.511 0 0 1-.344-.163c-.173-.097-.38-.227-.592-.353a8.062 8.062 0 0 0-.637-.352c-.212-.102-.403-.197-.685-.197Zm0 .76c-.035 0 .101.022.263.1.163.078.366.193.57.315.205.122.412.252.61.363.197.11.366.203.59.256.223.052.425.043.66.033.234-.01.487-.028.735-.045.247-.016.487-.029.672-.026.185.004.32.042.29.026-.031-.015.077.067.173.205.096.138.204.327.31.522.108.195.212.397.32.579.108.182.202.339.366.481.163.143.34.221.549.315.209.094.444.19.668.283.223.093.436.186.595.27.158.084.252.175.234.148-.018-.027.03.09.034.252.003.162-.01.37-.03.586-.019.216-.044.44-.055.645-.011.204-.021.376.038.571.06.195.171.343.298.515.127.172.272.356.413.534.14.179.272.351.361.493.09.141.12.265.12.234 0-.03-.03.092-.12.233-.09.142-.221.315-.361.493-.14.178-.286.362-.413.534-.127.172-.238.317-.298.511-.06.195-.049.37-.038.575.012.205.036.426.055.641.02.216.034.425.03.586-.003.162-.052.279-.034.252.017-.027-.076.068-.234.152a7.746 7.746 0 0 1-.595.27c-.224.094-.46.189-.668.283-.209.094-.386.172-.55.314-.163.143-.257.296-.365.478-.108.182-.212.388-.32.583-.106.195-.214.38-.31.518-.096.139-.204.22-.174.205.03-.015-.104.026-.29.03a8.534 8.534 0 0 1-.671-.026c-.247-.017-.501-.039-.736-.048-.234-.01-.436-.02-.66.033-.223.052-.392.149-.59.26-.197.11-.404.24-.608.362a7.602 7.602 0 0 1-.57.316c-.163.078-.3.1-.264.1.036 0-.105-.022-.268-.1a7.627 7.627 0 0 1-.566-.316c-.204-.122-.414-.252-.612-.363-.197-.11-.368-.207-.591-.259-.224-.052-.425-.043-.66-.033-.234.01-.488.031-.735.048s-.487.03-.672.026c-.186-.003-.32-.045-.29-.03.031.016-.078-.066-.174-.204a6.113 6.113 0 0 1-.31-.52c-.107-.194-.212-.4-.32-.581-.107-.182-.197-.336-.36-.478-.164-.143-.345-.221-.553-.315-.209-.094-.444-.19-.668-.282a7.808 7.808 0 0 1-.596-.27c-.158-.084-.25-.18-.233-.153.017.027-.031-.09-.035-.252-.004-.16.01-.37.03-.586.019-.215.045-.436.056-.64.011-.205.021-.38-.038-.575-.06-.195-.171-.34-.298-.512-.127-.172-.273-.356-.413-.534a6.415 6.415 0 0 1-.361-.492c-.09-.142-.12-.265-.12-.234s.03-.092.12-.234c.089-.141.221-.315.361-.493.14-.178.286-.362.413-.534.126-.172.238-.32.298-.515.06-.194.049-.367.038-.571-.012-.205-.037-.43-.056-.644a5.628 5.628 0 0 1-.03-.587c.004-.161.053-.278.035-.252-.018.027.075-.064.233-.148a7.82 7.82 0 0 1 .596-.27c.223-.094.459-.189.668-.283.208-.093.388-.172.552-.314.163-.143.254-.3.362-.482.107-.182.212-.384.319-.579.106-.195.214-.384.31-.522s.205-.22.174-.204c-.03.015.104-.023.29-.026.185-.004.424.009.672.026.247.016.5.034.735.044.235.01.436.019.66-.033.223-.052.393-.145.591-.256.198-.11.407-.24.612-.363.204-.122.404-.237.566-.315.162-.077.303-.1.268-.1ZM12 4.215c-3.287 0-5.962 2.331-5.962 5.198 0 2.866 2.675 5.197 5.962 5.197s5.962-2.33 5.962-5.197S15.286 4.216 12 4.216Zm0 .76c2.818 0 5.093 1.982 5.093 4.437 0 2.456-2.275 4.44-5.093 4.44s-5.093-1.984-5.093-4.44c0-2.455 2.275-4.438 5.093-4.438Zm2.345 2.656a.466.466 0 0 0-.3.115l-2.863 2.532-1.226-1.078a.468.468 0 0 0-.309-.119.47.47 0 0 0-.313.11.357.357 0 0 0-.129.273c0 .102.048.2.133.271l1.536 1.35a.468.468 0 0 0 .31.112c.116 0 .228-.04.31-.113l3.17-2.806a.345.345 0 0 0 .091-.418.442.442 0 0 0-.41-.229Zm4.338 6.912 3.093 4.67-3.214-.227a.448.448 0 0 0-.43.216l-1.38 2.54-3.09-4.664c.085-.05.18-.108.254-.15.173-.097.33-.16.344-.164.015-.003.187-.015.392-.007.205.008.454.027.71.044.255.018.515.03.757.026s.462-.007.706-.13c.244-.122.36-.286.485-.466a6.55 6.55 0 0 0 .348-.586c.11-.202.217-.4.31-.56a2.14 2.14 0 0 1 .205-.292c.01-.01.154-.097.336-.179.05-.022.118-.049.174-.072Zm-13.33.014.138.057c.182.082.325.17.335.179.01.009.11.134.204.292.095.16.2.358.311.56.11.201.223.405.349.586.125.18.24.344.484.467.244.122.464.125.706.13.242.004.502-.01.757-.027.256-.017.506-.036.71-.044.206-.008.378.004.392.007.015.004.172.067.345.164.083.047.189.11.285.168l-3.12 4.71-1.382-2.542a.447.447 0 0 0-.426-.216l-3.217.23 3.129-4.721Z" fill="#313131"/></svg>