<svg width="24" height="24" fill="none" xmlns="http://www.w3.org/2000/svg"><path fill-rule="evenodd" clip-rule="evenodd" d="M18.722 2.222a.611.611 0 1 0 0-1.222H17.5a.611.611 0 1 0 0 1.222v.672c-.39.08-.753.233-1.074.445l-.506-.506a.611.611 0 0 0-.864-.864l-.427.427-.006.005-.005.006-.427.426a.611.611 0 0 0 .865.864l.506.507c-.216.326-.367.69-.445 1.074h-.673a.611.611 0 1 0-1.222 0V6.5a.611.611 0 0 0 1.222 0h.673c.08.39.232.753.445 1.074l-.506.506a.612.612 0 1 0-.865.864l.865.865a.61.61 0 0 0 .864-.865l.506-.506c.326.216.69.368 1.074.445v.673a.611.611 0 1 0 0 1.222h1.222a.611.611 0 0 0 0-1.222v-.673a3.038 3.038 0 0 0 1.074-.445l.507.506a.61.61 0 0 0 .864.865l.864-.865a.611.611 0 0 0-.864-.864l-.506-.506a3.04 3.04 0 0 0 .445-1.074h.672A.611.611 0 0 0 23 6.5V5.278a.611.611 0 0 0-1.222 0h-.672a3.04 3.04 0 0 0-.445-1.074l.506-.507a.61.61 0 1 0 .864-.864l-.864-.864a.611.611 0 1 0-.864.864l-.507.506a3.038 3.038 0 0 0-1.074-.445v-.672Zm-.61 1.834a1.834 1.834 0 1 0 0 3.667 1.834 1.834 0 0 0 0-3.667ZM6.47 4.152l-.917-1.588 1.059-.611.917 1.587 1.058-.61.663 1.148a1.834 1.834 0 0 1 1.923.886l2.445 4.234a1.834 1.834 0 0 1-.671 2.504l-.53.306.611 1.058-1.058.611-.611-1.058-.53.306a1.833 1.833 0 0 1-2.504-.671L6.63 9.315a5.8 5.8 0 0 0-2.573 4.824c0 .522.068 1.027.197 1.506a5.78 5.78 0 0 1 2.553-.59 5.798 5.798 0 0 1 4.71 2.413l8.333-4.811.61 1.058-8.335 4.814a5.847 5.847 0 0 1 .416 3.249h8.627a.611.611 0 0 1 0 1.222H1.387l-.132-.431A5.805 5.805 0 0 1 1 20.86a5.794 5.794 0 0 1 2.18-4.534 7.022 7.022 0 0 1-.347-2.188 7.022 7.022 0 0 1 3.184-5.884l-.136-.235a1.834 1.834 0 0 1 .194-2.108l-.663-1.15 1.058-.61Zm2.81 1.2L7.163 6.574a.611.611 0 0 0-.224.835l2.445 4.234a.61.61 0 0 0 .835.223l2.117-1.222a.61.61 0 0 0 .223-.835l-2.444-4.234a.611.611 0 0 0-.835-.223Zm1.17 12.731-1.715.99.611 1.06 1.711-.988c.336.835.42 1.75.24 2.633H2.314a4.583 4.583 0 0 1 8.137-3.695Z" fill="#313131"/></svg>