<svg width="22" height="19" fill="none" xmlns="http://www.w3.org/2000/svg"><path d="M10.435 18.346a2.03 2.03 0 0 1-.999-.262l-5.257-2.84a2.107 2.107 0 0 1-.815-.774 2.096 2.096 0 0 1-.289-1.091V8.332L.552 6.94a1.023 1.023 0 0 1-.42-.394A1.064 1.064 0 0 1 0 6.019c0-.193.044-.368.131-.526.088-.157.228-.289.421-.394L9.436.263a2.027 2.027 0 0 1 1.998 0L21.448 5.73a.956.956 0 0 1 .408.38c.096.167.144.347.144.54v6.729c0 .298-.1.547-.303.748-.201.202-.45.303-.748.303s-.548-.1-.749-.303a1.015 1.015 0 0 1-.303-.748V7.176l-2.102 1.156v5.047c0 .403-.097.767-.29 1.091a2.107 2.107 0 0 1-.814.775l-5.257 2.839a2.03 2.03 0 0 1-.999.263Zm0-8.437 7.202-3.89-7.202-3.89-7.202 3.89 7.202 3.89Zm0 6.335 5.257-2.839V9.436l-4.232 2.34a2.143 2.143 0 0 1-1.55.197 2.032 2.032 0 0 1-.5-.198L5.178 9.436v3.969l5.257 2.839Z" fill="#313131"/></svg>